<svg width="30" height="30" class="hidden">
  <symbol xmlns="http://www.w3.org/2000/svg" viewBox="0 0 172 172" id="student-hat">
      <path d="M87.412 32.216c-.538 0-1.076.1-1.546.302L3.897 66.11c-1.612.672-2.553 2.151-2.553 3.764 0 1.612.94 3.092 2.553 3.764L28.22 83.58v43.672c.269 15.588 29.831 23.92 57.781 23.92 27.413 0 56.572-8.198 57.781-23.248v-43.94l24.455-10.345a4.137 4.137 0 000-7.528l-79.28-33.593a3.95 3.95 0 00-1.544-.302zM86 70.546c8.869 0 16.796.807 23.65 2.017 1.88.403 3.225 2.15 3.225 4.03v24.054c0 2.554-2.284 4.435-4.703 4.032A133.413 133.413 0 0086 102.797c-19.081 0-38.969 3.897-49.719 11.422V86.672c0-6.719 18.947-16.125 49.719-16.125zm80.625 11.423c-2.284 0-4.031 1.747-4.031 4.031v25.397c0 2.285 1.747 4.032 4.031 4.032s4.031-1.747 4.031-4.032V86c0-2.284-1.747-4.031-4.031-4.031zm-35.386 41.01a3.38 3.38 0 011.12.108c2.15.403 3.36 2.15 3.36 4.031 0 .269 0 .537-.134.806-1.613 7.122-22.307 15.185-49.451 15.185-2.15 0-4.165-1.613-4.3-3.763-.133-2.285 1.748-4.3 4.032-4.3 21.635 0 34.802-4.972 39.908-7.928 1.075-.672 1.882-1.613 2.554-2.553.706-.907 1.79-1.51 2.91-1.586z"></path>
  </symbol>
</svg>